<mxfile host="app.diagrams.net" modified="2023-10-11T07:06:06.586Z" agent="Mozilla/5.0 (Linux; Android 10; K) AppleWebKit/537.36 (KHTML, like Gecko) Chrome/117.0.0.0 Mobile Safari/537.36" version="22.0.4" etag="1GVEeQLF7KlI6cG4kcch" type="github">
  <diagram name="PÃ¡gina-1" id="OxMBRThrUt2HzRQvVMgh">
    <mxGraphModel>
      <root>
        <mxCell id="0" />
        <mxCell id="1" parent="0" />
      </root>
    </mxGraphModel>
  </diagram>
</mxfile>
